<svg width="300" height="235" viewBox="0 0 300 235" fill="none" xmlns="http://www.w3.org/2000/svg">
<path d="M109.455 123.455C119.455 123.455 141.955 150.955 150.455 150.955C158.955 150.955 153.455 137.955 162.955 137.955C170.555 137.955 256.955 194.955 252.455 196.455C247.953 197.955 82.9552 196.455 82.9552 196.455C80.2885 196.455 74.9552 194.655 74.9552 187.455C74.9556 178.455 99.4552 123.456 109.455 123.455Z" fill="#ADADAD"/>
<path d="M219.455 90.9553C227.463 90.9553 233.955 97.4472 233.955 105.455C233.955 113.463 227.463 119.955 219.455 119.955C211.447 119.955 204.955 113.463 204.955 105.455C204.955 97.4473 211.447 90.9553 219.455 90.9553Z" fill="#ADADAD"/>
<path fill-rule="evenodd" clip-rule="evenodd" d="M237.38 18.1447C240.062 17.4878 242.769 19.1297 243.426 21.8117L254.729 67.9553H279.955C282.717 67.9553 284.955 70.1939 284.955 72.9553V212.955C284.955 215.717 282.717 217.955 279.955 217.955H55.9552C54.9594 217.955 54.0324 217.663 53.2531 217.161C51.4437 216.769 49.9234 215.383 49.4533 213.463L16.1447 77.4836C15.4878 74.8016 17.1298 72.0949 19.8117 71.4377L237.38 18.1447ZM60.9552 207.955H274.955V77.9553H60.9552V207.955ZM27.047 79.9611L50.9552 177.566V74.1047L27.047 79.9611ZM76.0607 67.9553H173.071C173.496 61.832 177.808 56.4167 184.089 54.8781C191.867 52.9729 199.717 57.734 201.622 65.5119C201.822 66.3278 201.948 67.1447 202.005 67.9553H244.433L234.902 29.0471L76.0607 67.9553Z" fill="#ADADAD"/>
</svg>
